PathFileType   4   (X/Y/Z)
DataRate	CameraRate	NumFrames	NumMarkers	Units	OrigDataRate	OrigDataStartFrame	OrigNumFrames
120.0	120.0	5	37	mm	120.0	62	164
Frame#	Time	midhip	hip_r	hip_l	knee_r	knee_l	ankle_r	ankle_l	midasis	asis_r	asis_l	psis_r	psis_l	epicondLat_r	epicondLat_l	epicondMed_r	epicondMed_l	malleolusLat_r	malleolusLat_l	malleolusMedv_r	malleolusMedv_l	neck	subclavicle_r	subclavicle_l	sternalnotch	xyphoidprocess	thighwand_r	thighwand_l	upperleg1_r	upperleg1_l	upperleg2_r	upperleg2_l	shankwand_r	shankwand_l	lowerleg1_r	lowerleg1_l	toe_r	toe_l
 	 	X1	Y1	Z1	X2	Y2	Z2	X3	Y3	Z3	X4	Y4	Z4	X5	Y5	Z5	X6	Y6	Z6	X7	Y7	Z7	X8	Y8	Z8	X9	Y9	Z9	X10	Y10	Z10	X11	Y11	Z11	X12	Y12	Z12	X13	Y13	Z13	X14	Y14	Z14	X15	Y15	Z15	X16	Y16	Z16	X17	Y17	Z17	X18	Y18	Z18	X19	Y19	Z19	X20	Y20	Z20	X21	Y21	Z21	X22	Y22	Z22	X23	Y23	Z23	X24	Y24	Z24	X25	Y25	Z25	X26	Y26	Z26	X27	Y27	Z27	X28	Y28	Z28	X29	Y29	Z29	X30	Y30	Z30	X31	Y31	Z31	X32	Y32	Z32	X33	Y33	Z33	X34	Y34	Z34	X35	Y35	Z35	X36	Y36	Z36	X37	Y37	Z37

	62	0.81667	985.681	733.618	-272.042	973.810	722.640	-204.714	954.918	728.836	-333.504	1117.245	402.594	-199.749	888.860	418.266	-317.292	1245.429	82.179	-175.007	789.931	71.055	-305.182	1034.001	794.991	-275.992	1048.670	790.180	-175.994	1019.332	799.802	-375.990	885.730	831.136	-217.375	875.825	833.643	-270.790	1122.182	405.655	-145.056	875.831	418.275	-370.212	1101.730	394.452	-240.456	896.329	400.543	-269.200	1241.381	83.436	-137.748	780.310	72.552	-340.878	1243.764	84.167	-199.790	789.773	71.107	-274.481	911.482	1202.818	-259.918	1018.627	1139.956	-222.891	1018.762	1144.170	-298.931	1003.956	1141.313	-262.376	1029.852	1058.344	-264.519	1170.070	559.299	-106.765	1057.929	512.019	-366.084	1075.012	574.933	-127.425	995.000	583.794	-386.232	1105.191	496.116	-140.384	966.813	501.146	-375.353	1193.807	190.827	-66.708	824.123	186.930	-420.889	1203.263	152.848	-139.368	802.004	154.212	-347.005	1346.288	83.550	-167.109	883.858	36.645	-323.746
	63	0.82500	991.754	732.854	-270.461	979.978	721.925	-203.496	960.828	728.063	-332.251	1123.226	401.719	-199.410	892.679	417.864	-316.673	1248.098	80.221	-175.274	790.380	71.486	-305.283	1039.915	794.357	-274.906	1054.794	789.589	-174.865	1025.036	799.126	-374.947	891.715	830.283	-215.807	881.762	832.725	-269.168	1128.137	404.614	-144.706	879.388	418.129	-369.527	1107.219	393.829	-240.384	900.676	399.541	-268.851	1244.310	81.549	-137.990	780.699	73.172	-340.955	1245.966	81.991	-200.098	790.147	71.664	-274.544	916.859	1201.947	-258.471	1024.219	1139.353	-221.760	1023.485	1143.514	-298.011	1009.099	1140.665	-261.182	1035.066	1057.724	-263.550	1176.363	557.596	-105.904	1062.019	510.880	-365.970	1081.407	573.853	-126.356	999.318	583.288	-385.236	1111.243	494.905	-139.777	970.843	500.567	-374.743	1198.406	189.334	-66.787	825.475	187.413	-420.711	1206.660	151.121	-139.477	803.122	154.783	-346.901	1348.910	80.444	-168.099	883.966	36.742	-323.881
	64	0.83333	997.524	731.734	-268.826	986.391	721.242	-202.076	966.843	727.273	-330.775	1129.090	400.835	-199.070	896.458	417.488	-316.019	1250.337	78.241	-175.644	790.840	71.983	-305.425	1046.008	793.717	-273.711	1061.208	789.028	-173.640	1030.808	798.406	-373.782	897.800	829.482	-214.180	887.790	831.883	-267.487	1133.924	403.502	-144.347	882.909	418.052	-368.805	1113.146	393.321	-240.301	905.387	398.191	-268.931	1246.671	79.572	-138.347	781.097	73.868	-341.069	1247.495	79.581	-200.527	790.600	72.275	-274.657	922.270	1201.058	-257.009	1029.771	1138.732	-220.466	1029.046	1142.862	-296.819	1014.657	1139.994	-259.943	1040.814	1057.112	-262.265	1182.517	555.896	-104.839	1066.072	509.732	-365.751	1087.783	572.775	-125.245	1003.603	583.450	-383.852	1117.380	493.768	-139.096	974.874	500.066	-374.071	1202.253	187.596	-67.031	826.812	187.992	-420.542	1209.248	149.050	-139.801	804.209	155.418	-346.789	1350.991	76.900	-168.711	884.062	36.822	-323.987
	65	0.84167	1002.938	730.247	-267.112	992.825	720.601	-200.637	973.058	726.535	-329.308	1134.760	399.978	-198.719	900.218	417.184	-315.312	1252.444	76.427	-176.108	791.306	72.564	-305.587	1052.250	793.092	-272.413	1067.623	788.477	-172.340	1036.877	797.707	-372.487	903.970	828.764	-212.486	893.894	831.140	-265.738	1139.464	402.389	-143.973	886.423	418.048	-368.030	1119.518	392.750	-240.027	908.801	398.869	-267.037	1248.796	77.707	-138.807	781.505	74.656	-341.204	1248.691	77.073	-201.014	791.091	72.884	-274.784	927.726	1200.171	-255.480	1035.302	1138.019	-219.156	1035.948	1142.519	-295.062	1020.904	1139.404	-258.683	1047.494	1056.659	-260.954	1188.481	554.143	-103.637	1070.105	508.587	-365.444	1093.901	571.656	-124.138	1008.016	582.127	-383.772	1123.496	492.653	-138.299	978.796	499.586	-373.290	1205.621	185.821	-67.407	828.162	188.684	-420.368	1211.271	146.852	-140.286	805.376	156.014	-346.661	1352.868	73.123	-168.915	884.136	36.852	-324.045
	66	0.85000	1008.709	729.222	-265.445	999.222	720.033	-199.085	979.241	725.833	-327.729	1140.215	399.245	-198.348	903.999	416.958	-314.534	1254.627	74.892	-176.627	791.797	73.238	-305.745	1058.511	792.466	-271.032	1074.055	787.953	-170.954	1042.967	796.979	-371.109	910.221	828.168	-210.736	900.052	830.526	-263.940	1144.751	401.365	-143.576	889.969	418.126	-367.184	1125.450	392.358	-240.135	912.177	398.791	-265.921	1250.944	76.090	-139.328	781.944	75.544	-341.335	1250.288	74.889	-201.562	791.556	73.676	-274.906	933.215	1199.317	-253.902	1041.036	1137.340	-217.772	1040.755	1141.455	-293.975	1026.156	1138.534	-257.263	1052.673	1055.761	-259.422	1194.208	552.332	-102.332	1074.155	507.460	-365.036	1099.866	570.616	-123.200	1012.465	581.142	-382.959	1129.238	491.537	-137.723	982.620	499.061	-372.432	1208.811	184.158	-67.848	829.558	189.502	-420.167	1213.033	144.623	-140.946	806.504	156.814	-346.562	1354.793	69.340	-168.690	884.206	36.829	-324.061
